<svg width="145" height="51" viewBox="0 0 145 51" fill="none" xmlns="http://www.w3.org/2000/svg">
<path d="M2.68 40V11.04H8.64V22C9.06667 21.3867 9.78667 20.84 10.8 20.36C11.84 19.88 13.04 19.64 14.4 19.64C15.84 19.64 17.1333 19.9067 18.28 20.44C19.4267 20.9467 20.3867 21.6667 21.16 22.6C21.96 23.5067 22.5733 24.6 23 25.88C23.4267 27.1333 23.64 28.5067 23.64 30C23.64 31.52 23.4 32.92 22.92 34.2C22.4667 35.48 21.8133 36.5867 20.96 37.52C20.1333 38.4267 19.1333 39.1467 17.96 39.68C16.8133 40.1867 15.5467 40.44 14.16 40.44C12.8267 40.44 11.6667 40.1867 10.68 39.68C9.72 39.1733 9.01333 38.5333 8.56 37.76V40H2.68ZM17.56 30.04C17.56 29.2133 17.44 28.4933 17.2 27.88C16.96 27.24 16.6267 26.72 16.2 26.32C15.8 25.92 15.32 25.6267 14.76 25.44C14.2267 25.2267 13.6667 25.12 13.08 25.12C12.4933 25.12 11.92 25.2267 11.36 25.44C10.8267 25.6267 10.3467 25.92 9.92 26.32C9.52 26.72 9.18667 27.24 8.92 27.88C8.68 28.4933 8.56 29.2133 8.56 30.04C8.56 30.8667 8.68 31.5867 8.92 32.2C9.18667 32.8133 9.52 33.3333 9.92 33.76C10.3467 34.16 10.8267 34.4667 11.36 34.68C11.92 34.8933 12.4933 35 13.08 35C13.6667 35 14.2267 34.9067 14.76 34.72C15.32 34.5067 15.8 34.2 16.2 33.8C16.6267 33.3733 16.96 32.8533 17.2 32.24C17.44 31.6 17.56 30.8667 17.56 30.04ZM40.3638 40C40.3104 39.8133 40.2704 39.5067 40.2438 39.08C40.2171 38.6267 40.2038 38.2667 40.2038 38C39.6704 38.8533 38.8971 39.48 37.8838 39.88C36.8971 40.2533 35.8971 40.44 34.8838 40.44C33.6838 40.44 32.6038 40.24 31.6438 39.84C30.7104 39.4133 29.9238 38.8533 29.2838 38.16C28.6438 37.44 28.1504 36.6133 27.8038 35.68C27.4838 34.7467 27.3238 33.7467 27.3238 32.68V20.12H33.4038V31.4C33.4038 32.36 33.6571 33.1733 34.1638 33.84C34.6971 34.5067 35.5104 34.84 36.6037 34.84C37.6171 34.84 38.4171 34.5333 39.0038 33.92C39.6171 33.28 39.9238 32.4533 39.9238 31.44V20.12H46.0038V36.44C46.0038 37.3467 46.0304 38.1333 46.0838 38.8C46.1371 39.44 46.1771 39.84 46.2038 40H40.3638ZM51.3519 40V11.04H57.3119V22C57.7385 21.3867 58.4585 20.84 59.4719 20.36C60.5119 19.88 61.7119 19.64 63.0719 19.64C64.5119 19.64 65.8052 19.9067 66.9519 20.44C68.0985 20.9467 69.0585 21.6667 69.8319 22.6C70.6319 23.5067 71.2452 24.6 71.6719 25.88C72.0985 27.1333 72.3119 28.5067 72.3119 30C72.3119 31.52 72.0719 32.92 71.5919 34.2C71.1385 35.48 70.4852 36.5867 69.6319 37.52C68.8052 38.4267 67.8052 39.1467 66.6319 39.68C65.4852 40.1867 64.2185 40.44 62.8319 40.44C61.4985 40.44 60.3385 40.1867 59.3519 39.68C58.3919 39.1733 57.6852 38.5333 57.2319 37.76V40H51.3519ZM66.2319 30.04C66.2319 29.2133 66.1119 28.4933 65.8719 27.88C65.6319 27.24 65.2985 26.72 64.8719 26.32C64.4719 25.92 63.9919 25.6267 63.4319 25.44C62.8985 25.2267 62.3385 25.12 61.7519 25.12C61.1652 25.12 60.5919 25.2267 60.0319 25.44C59.4985 25.6267 59.0185 25.92 58.5919 26.32C58.1919 26.72 57.8585 27.24 57.5919 27.88C57.3519 28.4933 57.2319 29.2133 57.2319 30.04C57.2319 30.8667 57.3519 31.5867 57.5919 32.2C57.8585 32.8133 58.1919 33.3333 58.5919 33.76C59.0185 34.16 59.4985 34.4667 60.0319 34.68C60.5919 34.8933 61.1652 35 61.7519 35C62.3385 35 62.8985 34.9067 63.4319 34.72C63.9919 34.5067 64.4719 34.2 64.8719 33.8C65.2985 33.3733 65.6319 32.8533 65.8719 32.24C66.1119 31.6 66.2319 30.8667 66.2319 30.04ZM76.2347 40V11.04H82.1947V22C82.6214 21.3867 83.3414 20.84 84.3547 20.36C85.3947 19.88 86.5947 19.64 87.9547 19.64C89.3947 19.64 90.688 19.9067 91.8347 20.44C92.9814 20.9467 93.9414 21.6667 94.7147 22.6C95.5147 23.5067 96.128 24.6 96.5547 25.88C96.9814 27.1333 97.1947 28.5067 97.1947 30C97.1947 31.52 96.9547 32.92 96.4747 34.2C96.0214 35.48 95.368 36.5867 94.5147 37.52C93.688 38.4267 92.688 39.1467 91.5147 39.68C90.368 40.1867 89.1014 40.44 87.7147 40.44C86.3814 40.44 85.2214 40.1867 84.2347 39.68C83.2747 39.1733 82.568 38.5333 82.1147 37.76V40H76.2347ZM91.1147 30.04C91.1147 29.2133 90.9947 28.4933 90.7547 27.88C90.5147 27.24 90.1814 26.72 89.7547 26.32C89.3547 25.92 88.8747 25.6267 88.3147 25.44C87.7814 25.2267 87.2214 25.12 86.6347 25.12C86.048 25.12 85.4747 25.2267 84.9147 25.44C84.3814 25.6267 83.9014 25.92 83.4747 26.32C83.0747 26.72 82.7414 27.24 82.4747 27.88C82.2347 28.4933 82.1147 29.2133 82.1147 30.04C82.1147 30.8667 82.2347 31.5867 82.4747 32.2C82.7414 32.8133 83.0747 33.3333 83.4747 33.76C83.9014 34.16 84.3814 34.4667 84.9147 34.68C85.4747 34.8933 86.048 35 86.6347 35C87.2214 35 87.7814 34.9067 88.3147 34.72C88.8747 34.5067 89.3547 34.2 89.7547 33.8C90.1814 33.3733 90.5147 32.8533 90.7547 32.24C90.9947 31.6 91.1147 30.8667 91.1147 30.04ZM101.118 40V11.04H107.198V40H101.118ZM125.123 27.68C125.096 27.3067 125.003 26.92 124.843 26.52C124.709 26.12 124.483 25.76 124.163 25.44C123.843 25.12 123.429 24.8533 122.923 24.64C122.443 24.4267 121.843 24.32 121.123 24.32C120.483 24.32 119.923 24.4267 119.443 24.64C118.963 24.8533 118.549 25.12 118.203 25.44C117.883 25.76 117.629 26.12 117.443 26.52C117.283 26.92 117.189 27.3067 117.163 27.68H125.123ZM130.643 34.28C130.403 35.1333 130.029 35.9467 129.523 36.72C129.016 37.4933 128.376 38.1733 127.603 38.76C126.829 39.32 125.923 39.76 124.883 40.08C123.869 40.4267 122.736 40.6 121.483 40.6C120.123 40.6 118.816 40.36 117.563 39.88C116.309 39.4 115.203 38.7067 114.243 37.8C113.283 36.8933 112.523 35.7867 111.963 34.48C111.403 33.1733 111.123 31.68 111.123 30C111.123 28.4 111.389 26.96 111.923 25.68C112.483 24.3733 113.216 23.2667 114.123 22.36C115.056 21.4533 116.123 20.76 117.323 20.28C118.523 19.7733 119.763 19.52 121.043 19.52C124.136 19.52 126.563 20.4133 128.323 22.2C130.109 23.9867 131.003 26.4933 131.003 29.72C131.003 30.1467 130.989 30.56 130.963 30.96C130.936 31.3333 130.909 31.5467 130.883 31.6H117.043C117.069 32.16 117.203 32.68 117.443 33.16C117.709 33.6133 118.043 34.0133 118.443 34.36C118.869 34.7067 119.349 34.9733 119.883 35.16C120.416 35.3467 120.976 35.44 121.563 35.44C122.683 35.44 123.549 35.2 124.163 34.72C124.803 34.24 125.269 33.6133 125.563 32.84L130.643 34.28ZM134.237 36.24C134.237 35.68 134.344 35.16 134.557 34.68C134.77 34.1733 135.064 33.7333 135.437 33.36C135.81 32.9867 136.237 32.6933 136.717 32.48C137.224 32.2667 137.757 32.16 138.317 32.16C138.877 32.16 139.397 32.2667 139.877 32.48C140.384 32.6933 140.824 32.9867 141.197 33.36C141.597 33.7333 141.904 34.1733 142.117 34.68C142.33 35.16 142.437 35.68 142.437 36.24C142.437 36.8 142.33 37.3333 142.117 37.84C141.904 38.32 141.597 38.7467 141.197 39.12C140.824 39.4933 140.384 39.7867 139.877 40C139.397 40.24 138.877 40.36 138.317 40.36C137.757 40.36 137.224 40.24 136.717 40C136.237 39.7867 135.81 39.4933 135.437 39.12C135.064 38.7467 134.77 38.32 134.557 37.84C134.344 37.3333 134.237 36.8 134.237 36.24Z" fill="#756AF0"/>
</svg>
